Coordinates
version=1
nRows=22
nColumns=24
inDegrees=yes

Units are S.I. units (second, meters, Newtons, ...)
Angles are in degrees.

endheader
time	pelvis_tilt	pelvis_list	pelvis_rotation	pelvis_tx	pelvis_ty	pelvis_tz	hip_flexion_r	hip_adduction_r	hip_rotation_r	knee_angle_r	ankle_angle_r	subtalar_angle_r	mtp_angle_r	hip_flexion_l	hip_adduction_l	hip_rotation_l	knee_angle_l	ankle_angle_l	subtalar_angle_l	mtp_angle_l	lumbar_extension	lumbar_bending	lumbar_rotation
      1.03766667	     -1.68885997	     -3.75818171	      5.71085986	      0.51622525	      1.03249147	      0.30544953	     10.09867454	      9.36994603	     -0.22889020	    -17.33753887	      6.17199174	    -10.91627288	      5.84245501	     15.71519260	     -6.39109984	     -4.40392173	    -54.70949764	      8.24979486	     -1.54512997	     -2.87366758	      3.43324808	      0.05201230	     -0.54714263
      1.04183333	     -1.72131353	     -3.68782721	      5.55531575	      0.52088007	      1.03277413	      0.30588245	      9.75489942	      9.32992100	     -0.21217112	    -17.18749931	      6.39706832	    -10.62452904	      4.97377549	     16.26326872	     -6.21544776	     -4.43242163	    -54.11853558	      8.41389133	     -1.60254969	     -2.33898321	      3.42759529	      0.00756603	     -0.28007027
      1.04600000	     -1.67697388	     -3.67301360	      5.41586642	      0.52555268	      1.03312337	      0.30633243	      9.29635893	      9.36636579	     -0.14908132	    -16.94174921	      6.46081662	    -10.48288575	      4.93643048	     16.73377153	     -6.13051425	     -4.46981481	    -53.51848199	      8.68120597	     -1.51263238	     -2.30782591	      3.30451384	      0.01836749	     -0.22013201
      1.05016667	     -1.65045704	     -3.63283001	      5.27314623	      0.53019015	      1.03341262	      0.30675513	      8.87619482	      9.36541835	     -0.11482612	    -16.74698324	      6.62521020	    -10.25602993	      4.84873728	     17.20610680	     -6.00367573	     -4.48416141	    -52.86518862	      8.86600438	     -1.44839779	     -2.24842808	      3.19849252	      0.02152694	      0.00037157
      1.05433333	     -1.65210342	     -3.59611052	      5.11347449	      0.53482807	      1.03363919	      0.30719435	      8.48743420	      9.36864494	     -0.04751658	    -16.55427051	      6.75571936	    -10.07749507	      4.79386807	     17.69382951	     -5.88205089	     -4.50919099	    -52.17374806	      9.05087874	     -1.46054065	     -2.21169708	      3.12998918	      0.01454653	      0.12683664
      1.05850000	     -1.66303975	     -3.55161127	      4.95757012	      0.53947709	      1.03381674	      0.30761722	      8.11141071	      9.35801515	      0.00221484	    -16.37215535	      6.91447632	     -9.86995895	      4.73546935	     18.17754956	     -5.74877374	     -4.52337502	    -51.44240345	      9.18779102	     -1.48646597	     -2.17599927	      3.07995108	     -0.00814811	      0.29362425
      1.06266667	     -1.66441916	     -3.53013772	      4.81487434	      0.54411920	      1.03397425	      0.30800230	      7.72697307	      9.36612565	      0.01706427	    -16.18553409	      7.10153170	     -9.61215000	      4.62564277	     18.64805975	     -5.63791295	     -4.51248497	    -50.68304611	      9.28366257	     -1.53066154	     -2.11857402	      3.02807979	      0.00828510	      0.51497735
      1.06683333	     -1.71629236	     -3.48699489	      4.64211813	      0.54875424	      1.03403236	      0.30843702	      7.40127582	      9.35617716	      0.10914854	    -16.01604939	      7.24783309	     -9.45582837	      4.56619450	     19.14941423	     -5.50834196	     -4.52666230	    -49.88063669	      9.37539265	     -1.60211091	     -2.09004890	      3.01845828	     -0.01283854	      0.61664870
      1.07100000	     -1.73180666	     -3.45670486	      4.47943841	      0.55339247	      1.03411438	      0.30884044	      7.03276173	      9.35804668	      0.17774521	    -15.83521287	      7.41460898	     -9.25702722	      4.49725298	     19.60191081	     -5.39357223	     -4.52281149	    -49.04525690	      9.42577258	     -1.69666593	     -2.06203996	      2.97288235	     -0.01312313	      0.77945422
      1.07516667	     -1.76711401	     -3.42241527	      4.31184982	      0.55802784	      1.03413727	      0.30923995	      6.69189111	      9.35295561	      0.25372292	    -15.66876498	      7.58347062	     -9.07440535	      4.42749422	     20.06109849	     -5.27358840	     -4.51218488	    -48.17516975	      9.44531176	     -1.80682932	     -2.03861758	      2.95245345	     -0.01963798	      0.93101530
      1.07933333	     -1.83178938	     -3.38309768	      4.13704681	      0.56268195	      1.03410181	      0.30965095	      6.38240849	      9.34174148	      0.34987250	    -15.50749010	      7.74912756	     -8.90737784	      4.36423263	     20.53405248	     -5.14898007	     -4.49929762	    -47.26786408	      9.43049111	     -1.93591970	     -2.02234789	      2.96974512	     -0.04124256	      1.06982825
      1.08350000	     -1.87068188	     -3.33583143	      3.95979745	      0.56732039	      1.03408354	      0.31003197	      6.04900530	      9.31876170	      0.43698946	    -15.35339390	      7.93377999	     -8.72179931	      4.28597849	     20.96119136	     -5.01608912	     -4.48203129	    -46.31801789	      9.37052183	     -2.11010570	     -2.00730964	      2.95187324	     -0.05601066	      1.24297299
      1.08766667	     -1.92741703	     -3.30061081	      3.77535709	      0.57197418	      1.03400325	      0.31044262	      5.73489458	      9.31210366	      0.55443401	    -15.20065851	      8.10178903	     -8.56662533	      4.21869973	     21.39678550	     -4.90361447	     -4.46356664	    -45.34737248	      9.30235275	     -2.26873294	     -1.99868114	      2.95775489	     -0.06870770	      1.37878144
      1.09183333	     -1.98914180	     -3.25939356	      3.59998194	      0.57663325	      1.03389180	      0.31080756	      5.42879045	      9.29114731	      0.63855527	    -15.05254815	      8.29321134	     -8.38550953	      4.10876241	     21.82251108	     -4.77527965	     -4.41751594	    -44.33887714	      9.17939771	     -2.50317755	     -1.98880473	      2.98467884	     -0.07940167	      1.58106446
      1.09600000	     -2.05597694	     -3.21613004	      3.38967557	      0.58128047	      1.03373971	      0.31125126	      5.13310237	      9.27805108	      0.80994800	    -14.92087159	      8.46202719	     -8.26507628	      4.04398761	     22.23532503	     -4.67177732	     -4.42228146	    -43.30421045	      9.06823362	     -2.65684323	     -1.98864557	      2.98952755	     -0.10574924	      1.68434114
      1.10016667	     -2.14565657	     -3.16785600	      3.18440814	      0.58594962	      1.03354124	      0.31166672	      4.86350148	      9.25333177	      0.96192825	    -14.79390702	      8.63704474	     -8.14111013	      3.97197493	     22.65562453	     -4.55355588	     -4.39659330	    -42.23160894	      8.89597791	     -2.89829314	     -1.99358661	      3.03737526	     -0.13188245	      1.83560290
      1.10433333	     -2.19838224	     -3.12656638	      2.99179665	      0.59063972	      1.03337926	      0.31203899	      4.54520439	      9.23234720	      1.08967223	    -14.64677339	      8.81992259	     -7.99253721	      3.86508153	     23.02136164	     -4.43998308	     -4.34706322	    -41.12823151	      8.70216372	     -3.18707365	     -2.00146363	      3.05966170	     -0.14140028	      2.03851719
      1.10850000	     -2.27786447	     -3.07426388	      2.77325342	      0.59532774	      1.03315875	      0.31246370	      4.26566207	      9.20279302	      1.26536797	    -14.52698063	      9.00138834	     -7.87332842	      3.76199685	     23.39547103	     -4.32974391	     -4.32465485	    -39.99182492	      8.49299280	     -3.44796103	     -2.01388632	      3.09807851	     -0.17397854	      2.19855691
      1.11266667	     -2.35961565	     -3.03020671	      2.54935772	      0.60002343	      1.03289932	      0.31288988	      3.98916180	      9.18089547	      1.45278810	    -14.40856564	      9.17690229	     -7.76401205	      3.65809408	     23.76126949	     -4.23515867	     -4.30136969	    -38.83783576	      8.27385851	     -3.71614233	     -2.03122477	      3.13970912	     -0.19297126	      2.36041844
      1.11683333	     -2.42337166	     -2.97325774	      2.29522312	      0.60472326	      1.03265967	      0.31337442	      3.69664250	      9.14985982	      1.69056471	    -14.30457319	      9.34717879	     -7.67981982	      3.59420631	     24.08349622	     -4.15200186	     -4.32681116	    -37.65153389	      8.05790929	     -3.91982742	     -2.04949104	      3.14392653	     -0.23729633	      2.47322194
      1.12100000	     -2.50126947	     -2.92532167	      2.07261284	      0.60945328	      1.03236590	      0.31377789	      3.41225828	      9.11814354	      1.87275221	    -14.18151675	      9.52188694	     -7.57432892	      3.48325088	     24.41171735	     -4.05099647	     -4.26552396	    -36.44015819	      7.78858129	     -4.27809432	     -2.07989814	      3.20132849	     -0.25455876	      2.69732222
      1.12516667	     -2.57826215	     -2.88779256	      1.80422985	      0.61417118	      1.03203522	      0.31428041	      3.14052115	      9.10533901	      2.12787853	    -14.09444223	      9.69810567	     -7.50622787	      3.41694315	     24.72790786	     -4.00476144	     -4.29483213	    -35.22769319	      7.57058805	     -4.47418512	     -2.10511542	      3.23346320	     -0.27460240	      2.81380101
